<svg xmlns="http://www.w3.org/2000/svg" xmlns:xlink="http://www.w3.org/1999/xlink" version="1.1" x="0px" y="0px" width="123.4px" height="123.4px" viewBox="0 0 123.4 123.4" enable-background="new 0 0 123.4 123.4" xml:space="preserve">
<style>
	.style0{
		clip-path:	url(#SVGID_2_);
		fill:	#318AB7;
	}

	.style0:hover {
	fill: #f8f2e6;
	}
	.style1{
		clip-path:	url(#SVGID_2_);
		fill:	#F57F38;
	}

	.style2{
		font-size:	17;
		font-family:	'Oswald',sans-serif;
		fill:	#FFFFFF;
	}
	.style3{
		clip-path:	url(#SVGID_4_);
		fill:	#F7F0E4;
	}
</style><g>
	<defs>
		<rect width="123.4" height="123.4"/>
	</defs>
	<clipPath>
		<use xlink:href="#SVGID_1_" overflow="visible"/>
	</clipPath>
	<path d="M123.4 111.4c0 6.6-5.4 12-12 12H12c-6.6 0-12-5.4-12-12V12C0 5.4 5.4 0 12 0 h99.5c6.6 0 12 5.4 12 12V111.4z" class="style0"/>
	<path d="M123.4 111.4c0 6.6-5.4 12-12 12H12c-6.6 0-12-5.4-12-12V84.2h123.4V111.4z" class="style1"/>
</g>
<text transform="matrix(1 0 0 1 30.8633 107.7808)" ><tspan x="0" y="0" display="inline" class="style2">GROCERY</tspan></text>
<g>
	<defs>
		<rect width="123.4" height="123.4"/>
	</defs>
	<clipPath>
		<use xlink:href="#SVGID_3_" overflow="visible"/>
	</clipPath>
	<path d="M57.3 74.8c0 2.7-2.2 4.9-4.9 4.9c-2.7 0-4.9-2.2-4.9-4.9 c0-2.7 2.2-4.9 4.9-4.9C55.1 69.9 57.3 72.1 57.3 74.8" class="style3"/>
	<path d="M85.8 74.8c0 2.7-2.2 4.8-4.8 4.8c-2.7 0-4.8-2.2-4.8-4.8 c0-2.7 2.2-4.8 4.8-4.8C83.7 70 85.8 72.1 85.8 74.8" class="style3"/>
	<path d="M95.6 32.5c-0.6-0.8-1.6-1.4-2.6-1.4l-55.6-4c-0.1 0-0.2 0-0.3 0 c-0.1 0-0.1 0-0.2 0c0 0-0.1 0-0.1 0c-0.5 0-1 0.1-1.4 0.3c-0.4-1-0.7-1.8-0.8-2.2c-0.7-1.9-1.9-3.1-2.9-3.8c-1-0.7-1.8-1-1.9-1 l0 0l-5.7-1.4c-1.1 0.4-1.8 1.7-0.9 3.1l5.4 1.4c0.1 0 0.6 0.2 1.1 0.6c0.6 0.5 1.3 1.2 1.7 2.3c0.6 1.5 3.6 9.9 6.5 17.8 c1.4 4 2.8 7.9 3.9 10.8c0.9 2.6 1.6 4.3 1.7 4.7c0 0.1 0.1 0.5 0.1 1c0 0.5-0.1 1-0.3 1.4c-0.2 0.4-0.5 0.7-1.2 1 c-2.1 0.9-3.3 2.9-3.3 5c0 1.3 0.5 2.7 1.7 3.7c1.1 1 2.8 1.5 4.8 1.5c0.3 0 0.6 0 0.9 0c0.3-1.2 0.9-2.3 1.8-3.1c-1 0-1.8 0-2.4 0 c-1.5 0-2.3-0.4-2.8-0.8c-0.4-0.4-0.6-0.8-0.6-1.3c0-0.9 0.6-1.8 1.4-2.2c1.3-0.6 2.2-1.5 2.7-2.5c0.2-0.5 0.4-0.9 0.5-1.4 C47 62 47.3 62 47.6 62l40.8 0.8h0.1c0 0 0 0 0.1 0l0.2 0h0.1c0.9 0 1.7-0.3 2.4-0.9c0.7-0.5 1.2-1.3 1.3-2.2l0.6-3.8 c0-0.1 0-0.1 0-0.2l3.3-19.6c0-0.3 0.1-0.6 0.1-0.9C96.5 34.3 96.2 33.3 95.6 32.5 M80.8 33.4l5.9 0.4l-0.4 3.6l-5.7-0.3L80.8 33.4 z M70.2 32.6l0.1 3.9l-6.2-0.4l-0.4-4L70.2 32.6z M62.5 41.8l-6-0.3l-0.7-3.7l6.3 0.4L62.5 41.8z M61.5 32l0.4 4.1l-6.5-0.4 l-0.7-4.2L61.5 32z M55.4 47.4l-5.8-0.2l-1-3.8l6.1 0.3L55.4 47.4z M54.3 41.5l-6.2-0.3l-1-3.8l6.6 0.4L54.3 41.5z M52.5 31.3 l0.8 4.2l-6.7-0.4l-1.1-4.3L52.5 31.3z M36.8 31.5c-0.1-0.3-0.2-0.6-0.2-0.8c0-0.3 0.1-0.4 0.1-0.4c0 0 0 0 0.1 0l6.3 0.5l1.1 4.4 L38 34.7L36.8 31.5z M38.8 36.9l6.1 0.4l1 3.8l-5.7-0.3L38.8 36.9z M41 43l5.4 0.3l1 3.8l-5-0.2L41 43z M44.7 53.1l-1.4-3.9 l4.8 0.2l1 3.9L44.7 53.1z M48 58.9c-0.3 0-0.6-0.1-0.9-0.3c-0.3-0.2-0.5-0.5-0.6-0.7l-1-2.7l4.1 0.1l0.9 3.6L48 58.9z M50.2 49.4 l5.6 0.2l0.7 3.8l-5.3-0.2L50.2 49.4z M52.7 59l-0.9-3.6l5.1 0.2l0.6 3.5L52.7 59z M56.9 43.8l5.8 0.3l0.4 3.7l-5.5-0.2L56.9 43.8z M58 49.7l5.4 0.2l0.4 3.8l-5.1-0.1L58 49.7z M59.6 59.2L59 55.7l4.9 0.1l0.4 3.5L59.6 59.2z M64.3 38.3l6.1 0.3l0.1 3.5L64.7 42 L64.3 38.3z M64.9 44.1l5.6 0.3l0.1 3.6l-5.3-0.2L64.9 44.1z M65.5 49.9l5.2 0.2l0.1 3.7l-4.9-0.1L65.5 49.9z M66.4 59.3l-0.4-3.4 l4.7 0.1l0.1 3.4L66.4 59.3z M77.4 59.5l-4.3-0.1L73 56.1l4.5 0.1L77.4 59.5z M77.6 54l-4.7-0.1l-0.1-3.7l5 0.2L77.6 54z M77.9 48.2L72.8 48l-0.1-3.6l5.4 0.3L77.9 48.2z M78.2 42.6l-5.5-0.3l-0.1-3.5l5.8 0.3L78.2 42.6z M78.4 37l-5.9-0.3l-0.1-3.9 l6.2 0.4L78.4 37z M83.7 59.7l-4.1-0.1l0.2-3.3l4.3 0.1L83.7 59.7z M84.3 54.2l-4.5-0.1l0.2-3.6l4.7 0.2L84.3 54.2z M85 48.5 l-4.9-0.2l0.2-3.5l5.1 0.2L85 48.5z M80.4 42.7l0.2-3.4l5.5 0.3l-0.4 3.3L80.4 42.7z M89.1 59.3c0 0.1-0.1 0.2-0.2 0.3 c-0.1 0.1-0.3 0.2-0.4 0.2l-2.6-0.1l0.4-3.2l3.3 0.1L89.1 59.3z M89.9 54.4l-3.4-0.1l0.4-3.6l3.6 0.1L89.9 54.4z M90.9 48.7 l-3.7-0.1l0.4-3.4l3.8 0.2L90.9 48.7z M91.8 43.2l-4-0.2l0.4-3.3l4.1 0.2L91.8 43.2z M93.1 35.7l-0.4 2.1l-4.2-0.2l0.4-3.6l3.5 0.3 c0.2 0 0.3 0.1 0.4 0.2c0.1 0.2 0.3 0.5 0.3 0.9C93.1 35.4 93.1 35.6 93.1 35.7" class="style3"/>
	<path d="M76.6 70.2c-6 0-13.5 0-19.7 0c0.9 0.8 1.5 1.9 1.8 3.1c3.2 0 6.7 0 10 0 c2.1 0 4.2 0 6.1 0C75.1 72.1 75.7 71 76.6 70.2" class="style3"/>
	<path d="M87.8 70.2c0 0-0.9 0-2.4 0c0.9 0.8 1.5 1.9 1.8 3.1c0.2 0 0.3 0 0.3 0h0 c0 0 0 0 0 0c0.2 0 0.3 0 0.3 0h0c0.9 0 1.6-0.7 1.6-1.6C89.4 70.9 88.7 70.2 87.8 70.2" class="style3"/>
</g>
</svg>
